<?xml version="1.0"?>
<!DOCTYPE svg PUBLIC "-//W3C//DTD SVG 1.1//EN"
  "http://www.w3.org/Graphics/SVG/1.1/DTD/svg11.dtd">

<!--
   Copyright 2011 (c) Jeff Brown <spadix@users.sourceforge.net>
     All Rights Reserved
-->

<svg version="1.1" id="top"
  width="512px" height="416px"
  viewBox="-354,-133 1024,832" preserveAspectRatio="xMidYMid" overflow="visible"
  xmlns="http://www.w3.org/2000/svg">

  <title>annotated portrait scanner</title>
  <defs>
    <style type="text/css"><![CDATA[
      * { stroke-linecap: round; stroke-linejoin: round }
      /*image { image-rendering: optimizeSpeed }*/
      .ann text { fill: #c12; font: bold 36px sans-serif; text-anchor: middle }
      .ann ellipse, .ann path { stroke: #d12; fill: none; stroke-width: 8 }
      .ann path { marker-end: url(#arrow) }
      #arrow path { stroke: #d12; fill: none; stroke-width: 8 }
      #bg { stroke: none; fill: black }
      .dbg rect, .dbg line, .dbg path { stroke: red; fill: none; stroke-width: 2; stroke-opacity: .5 }
      .dbg circle { stroke: none; fill: red; fill-opacity: .5 }
    ]]></style>
    <marker id="arrow" overflow="visible"
      markerUnits="userSpaceOnUse" orient="auto">
      <path d="M-24,-12 l24,12 -24,12"/>
    </marker>
  </defs>

  <!-- screenshot and phone wrapper -->
  <rect id="bg" x="-16" y="-16" width="352" height="512"/>
  <image id="screen" width="320" height="480"
    xlink:href="screen-scanner-port.png"/>
  <image id="phone" x="-32" y="-133" width="380" height="832"
    xlink:href="iphone4-port.png"/>

  <g class="ann">

    <path d="M-100,32 Q-64,92 42,128"/>
    <g transform="translate(-192,-32)">
      <text>Align Barcode</text>
      <text y="44">Inside Box</text>
    </g>

    <!-- Cancel btn 60x29+6+440 -->
    <ellipse cx="36" cy="454" rx="50" ry="35"/>
    <path d="M-78,546 Q-28,545 0,500"/>
    <g transform="translate(-192,512)">
      <text>Stop Scanning</text>
      <text y="44">Barcodes</text>
    </g>

    <!-- info btn 18x18+284+444 -->
    <ellipse cx="293" cy="453" rx="40" ry="25"/>
    <path d="M396,512 Q360,524 320,490"/>
    <g transform="translate(508,500)">
      <text y="22">Quick Help</text>
    </g>
  </g>

  <g class="dbg">
    <!--<rect x="-32" y="-133" width="380" height="832"/>-->
    <!--<line x1="-192" x2="-192" y2="480"/>
    <line x1="508" x2="508" y2="480"/>-->
  </g>
</svg>
