<?xml version="1.0"?>
<!DOCTYPE svg PUBLIC "-//W3C//DTD SVG 1.1//EN"
  "http://www.w3.org/Graphics/SVG/1.1/DTD/svg11.dtd">

<!--
   Copyright 2011 (c) Jeff Brown <spadix@users.sourceforge.net>
     All Rights Reserved
-->

<svg version="1.1" id="top"
  width="704px" height="239px"
  viewBox="-466,-28 1408,478" preserveAspectRatio="xMidYMid" overflow="visible"
  xmlns="http://www.w3.org/2000/svg">

  <title>annotated landscape scanner</title>
  <defs>
    <style type="text/css"><![CDATA[
      * { stroke-linecap: round; stroke-linejoin: round }
      /*image { image-rendering: optimizeSpeed }*/
      .ann text { fill: #c12; font: bold 36px sans-serif; text-anchor: middle }
      .ann ellipse, .ann path { stroke: #d12; fill: none; stroke-width: 8 }
      .ann path { marker-end: url(#arrow) }
      #arrow path { stroke: #d12; fill: none; stroke-width: 8 }
      #bg { stroke: none; fill: black }
      .dbg rect, .dbg line, .dbg path { stroke: red; fill: none; stroke-width: 2; stroke-opacity: .5 }
      .dbg circle { stroke: none; fill: red; fill-opacity: .5 }
    ]]></style>
    <marker id="arrow" overflow="visible"
      markerUnits="userSpaceOnUse" orient="auto">
      <path d="M-24,-12 l24,12 -24,12"/>
    </marker>
  </defs>

  <!-- screenshot and phone wrapper -->
  <rect id="bg" x="-16" y="-16" width="512" height="352"/>
  <image id="screen" transform="translate(80,-80) rotate(90 160,240)" width="320" height="480"
    xlink:href="screen-scanner-land.png"/>
  <image id="phone" x="-134" y="-28" width="744" height="478"
    xlink:href="iphone4-land.png"/>

  <g class="ann">
    <path d="M-200,72 Q-128,128 42,148"/>
    <g transform="translate(-300,16)">
      <text>Align Barcode</text>
      <text y="44">Inside Box</text>
    </g>

    <!-- Cancel btn 54x24+7+291 -->
    <ellipse cx="33" cy="303" rx="48" ry="32"/>
    <path d="M-160,372 Q-72,380 -16,336"/>
    <g transform="translate(-300,360)">
      <text>Stop Scanning</text>
      <text y="44">Barcodes</text>
    </g>

    <!-- info btn 18x18+453+293 -->
    <ellipse cx="453" cy="302" rx="40" ry="25"/>
    <path d="M662,372 Q536,380 490,336"/>
    <g transform="translate(776,360)">
      <text y="22">Quick Help</text>
    </g>
  </g>

  <g class="dbg">
    <!--<rect x="-32" y="-133" width="380" height="832"/>-->
    <!--<line x1="-192" x2="-192" y2="480"/>
    <line x1="508" x2="508" y2="480"/>-->
  </g>
</svg>
