<?xml version="1.0"?>
<!DOCTYPE svg PUBLIC "-//W3C//DTD SVG 1.1//EN"
  "http://www.w3.org/Graphics/SVG/1.1/DTD/svg11.dtd">

<!--
   Copyright 2011 (c) Jeff Brown <spadix@users.sourceforge.net>
     All Rights Reserved

  $ batik-rasterizer -w 104 -h 104 -dpi 576 -d external@8x.png external.svg
  $ convert external@8x.png -resize 25% -units PixelsPerInch -density 144 \
        external@2x.png
  $ optipng -o7 external@2x.png
-->

<svg version="1.1" id="top"
  width="416px" height="416px"
  viewBox="-1,-1 13,13" preserveAspectRatio="xMidYMid" overflow="visible"
  xmlns="http://www.w3.org/2000/svg"
  xmlns:xlink="http://www.w3.org/1999/xlink">

  <title>external link disclosure accessory</title>

  <defs>
    <style type="text/css"><![CDATA[
      path, line, rect { fill: none; stroke-linejoin: round; stroke-linecap: round }
      #box { fill: none; stroke: #35d; stroke-width: 1.5 }
      #arrow { fill: white; stroke: #48e; stroke-width: 1.5 }
      #dbg * { fill: none; stroke: red; stroke-width: .01; stroke-opacity: .75 }
    ]]></style>
  </defs>

  <rect id="box" x=".5" y="4" width="6.5" height="6.5"/>
  <path id="arrow" d="M2.75,6.25
l3.5,-3.5 -.97,-.97 a.75,.75 0 0,1 .53,-1.28 h4.69
v4.69 a.75,.75 0 0,1 -1.28,.53 l-.97,-.97 l-3.5,3.5"/>

<!--
  <g id="dbg">
    <rect x="-1" y="-1" width="13" height="13"/>
    <rect x="0" y="0" width="11" height="11"/>
    <line x1="-1" y1="2.5" x2="8.5" y2="12"/>
    <path d="M2.75,6.25 l3.5,-3.5 -2.25,-2.25 h6.5 v6.5 l-2.25,-2.25 l-3.5,3.5"/>
    <line x1="-1" y1="1.25" x2="12" y2="1.25"/>
    <line x1="4.56" y1="0" x2="12" y2="7.44"/>
    <circle cx="5.81" cy="1.25" r=".75"/>
    <circle cx="9.75" cy="5.19" r=".75"/>
  </g>
-->
</svg>
