<?xml version="1.0"?>
<!DOCTYPE svg PUBLIC "-//W3C//DTD SVG 1.1//EN"
  "http://www.w3.org/Graphics/SVG/1.1/DTD/svg11.dtd">

<!--
   Copyright 2010 (c) Jeff Brown <spadix@users.sourceforge.net>
     All Rights Reserved

  $ batik-rasterizer -w 320 -h 256 -dpi 576 -d folder@8x.png folder.svg
  $ convert folder@8x.png -resize 25% -units PixelsPerInch -density 144 \
        folder@2x.png
  $ optipng -o7 folder@2x.png
-->

<svg version="1.1" id="top"
  width="40px" height="32px"
  viewBox="-4,0 40,32" preserveAspectRatio="xMidYMid" overflow="visible"
  xmlns="http://www.w3.org/2000/svg"
  xmlns:xlink="http://www.w3.org/1999/xlink">

  <title>folder icon</title>

  <defs>
    <style type="text/css"><![CDATA[
      path, line, rect { fill: none; stroke-linejoin: round; stroke-linecap: round }
      #folder * { fill: #dd9; stroke: #997; stroke-width: 1.5 }
      #dbg * { fill: none; stroke: black; stroke-width: .1 }
    ]]></style>
  </defs>

  <g id="folder">
    <path id="back"
      d="M1,29 a2,2 0 0,0 2,2 h24 a2,2 0 0,0 2,-2 v-20 a2,2 0 0,0 -2,-2 h-11
         a4,4 0 0,1 -3,-3 a4,4 0 0,0 -3,-3 h-6 a3,3 0 0,0 -3,3 z"/>
    <rect id="front" transform="translate(0,31) skewX(-12) translate(0,-31)"
      x="1" y="10" width="28" height="21" rx="2" ry="2"/>
  </g>

<!--
  <g id="dbg">
    <rect x="0" y="0" width="32" height="32"/>
  </g>
-->
</svg>
