<?xml version="1.0"?>
<!DOCTYPE svg PUBLIC "-//W3C//DTD SVG 1.1//EN"
  "http://www.w3.org/Graphics/SVG/1.1/DTD/svg11.dtd">

<!--
   Copyright 2011 (c) Jeff Brown <spadix@users.sourceforge.net>
     All Rights Reserved
-->

<svg version="1.1" id="top"
  width="512px" height="416px"
  viewBox="-354,-133 1024,832" preserveAspectRatio="xMidYMid" overflow="visible"
  xmlns="http://www.w3.org/2000/svg">

  <title>annotated barcode list</title>
  <defs>
    <style type="text/css"><![CDATA[
      * { stroke-linecap: round; stroke-linejoin: round }
      /*image { image-rendering: optimizeSpeed }*/
      .ann text { fill: #c12; font: bold 36px sans-serif; text-anchor: middle }
      .ann ellipse, .ann path { stroke: #d12; fill: none; stroke-width: 8 }
      path.arrow { marker-end: url(#arrow) }
      #arrow path { stroke: #d12; fill: none; stroke-width: 8 }
      #bg { stroke: none; fill: black }
      .dbg rect, .dbg line, .dbg path { stroke: red; fill: none; stroke-width: 2; stroke-opacity: .5 }
      .dbg circle { stroke: none; fill: red; fill-opacity: .5 }
    ]]></style>
    <marker id="arrow" overflow="visible"
      markerUnits="userSpaceOnUse" orient="auto">
      <path d="M-24,-12 l24,12 -24,12"/>
    </marker>
  </defs>

  <!-- screenshot and phone wrapper -->
  <rect id="bg" x="-16" y="-16" width="352" height="512"/>
  <image id="screen" width="320" height="480"
    xlink:href="screen-barcodes.png"/>
  <image id="phone" x="-32" y="-133" width="380" height="832"
    xlink:href="iphone4-port.png"/>

  <g class="ann">
    <ellipse cx="40" cy="42" rx="54" ry="32"/>
    <path class="arrow" d="M-112,0 Q-108,42 -36,42"/>
    <g transform="translate(-192,-64)">
      <text>Return to</text>
      <text y="44">List of Folders</text>
    </g>

    <!-- Edit btn 51x30+264+27 -->
    <ellipse cx="289.5" cy="42" rx="45" ry="30"/>
    <path class="arrow" d="M428,0 Q420,42 352,42"/>
    <g transform="translate(508,-64)">
      <text>Edit List</text>
      <text y="44">(Delete Entries)</text>
    </g>

    <!-- list item 320x63+0+128 -->
    <path class="arrow" d="M-64,208 L64,170"/>-->
    <g transform="translate(-192,208)">
      <text>Barcode</text>
      <text y="44" >Description and</text>
      <text y="88">Data Format</text>
    </g>

    <!-- email btn 18x19+16+449 -->
    <ellipse cx="25" cy="458.5" rx="35" ry="24"/>
    <path class="arrow" d="M-112,490 Q-90,460 -36,458.5"/>
    <g transform="translate(-192,532)">
      <text>E-mail this</text>
      <text y="44">List of Barcodes</text>
    </g>

    <!-- camera btn 24x19+155+449 -->
    <ellipse cx="167" cy="458.5" rx="35" ry="24"/>
    <path class="arrow" d="M400,560 Q250,560 192,496"/>
    <g transform="translate(508,532)">
      <text>Scan a Barcode</text>
    </g>

    <!-- plus btn 18x19+293+449 -->
    <ellipse cx="302" cy="458.5" rx="35" ry="24"/>
    <path class="arrow" d="M440,432 Q424,458 352,458.5"/>
    <g transform="translate(508,372)">
      <text>Scan Saved</text>
      <text y="44">Image File</text>
    </g>
  </g>

  <g class="dbg">
    <!--<rect x="-32" y="-133" width="380" height="832"/>-->
    <!--<line x1="-192" x2="-192" y2="480"/>
    <line x1="508" x2="508" y2="480"/>-->
  </g>
</svg>
