<?xml version="1.0"?>
<!DOCTYPE svg PUBLIC "-//W3C//DTD SVG 1.1//EN"
  "http://www.w3.org/Graphics/SVG/1.1/DTD/svg11.dtd">

<!--
   Copyright 2011 (c) Jeff Brown <spadix@users.sourceforge.net>
     All Rights Reserved
-->

<svg version="1.1" id="top"
  width="512px" height="416px"
  viewBox="-354,-133 1024,832" preserveAspectRatio="xMidYMid" overflow="visible"
  xmlns="http://www.w3.org/2000/svg">

  <title>annotated browser</title>
  <defs>
    <style type="text/css"><![CDATA[
      * { stroke-linecap: round; stroke-linejoin: round }
      /*image { image-rendering: optimizeSpeed }*/
      .ann text { fill: #c12; font: bold 36px sans-serif; text-anchor: middle }
      .ann ellipse, .ann path { stroke: #d12; fill: none; stroke-width: 8 }
      .ann path { marker-end: url(#arrow) }
      #arrow path { stroke: #d12; fill: none; stroke-width: 8 }
      #bg { stroke: none; fill: black }
      .dbg rect, .dbg line, .dbg path { stroke: red; fill: none; stroke-width: 2; stroke-opacity: .5 }
      .dbg circle { stroke: none; fill: red; fill-opacity: .5 }
    ]]></style>
    <marker id="arrow" overflow="visible"
      markerUnits="userSpaceOnUse" orient="auto">
      <path d="M-24,-12 l24,12 -24,12"/>
    </marker>
  </defs>

  <!-- screenshot and phone wrapper -->
  <rect id="bg" x="-16" y="-16" width="352" height="512"/>
  <image id="screen" width="320" height="480"
    xlink:href="screen-browser.png"/>
  <image id="phone" x="-32" y="-133" width="380" height="832"
    xlink:href="iphone4-port.png"/>

  <g class="ann">
    <!-- Barcode back btn 68x30+6+27 -->
    <ellipse cx="40" cy="42" rx="54" ry="35"/>
    <path d="M-112,0 Q-108,42 -36,42"/>
    <g transform="translate(-192,-64)">
      <text>Exit Browser to</text>
      <text y="44">Barcode Detail</text>
    </g>

    <!-- back btn 18x19+17+449 -->
    <ellipse cx="26" cy="458.5" rx="35" ry="24"/>
    <path d="M-96,490 Q-90,470 -36,458.5"/>
    <g transform="translate(-192,532)">
      <text>Go "Back" in</text>
      <text y="44">Browser History</text>
    </g>

    <!-- action btn 23x19+285+447 -->
    <ellipse cx="294" cy="458.5" rx="35" ry="24"/>
    <path d="M408,380 Q408,430 346,446"/>
    <g transform="translate(508,280)">
      <text>Page Actions:</text>
      <text y="44">Open in Safari,</text>
      <text y="88">Email Link</text>
    </g>

    <!-- camera btn 24x19+156+449 -->
    <ellipse cx="168" cy="458.5" rx="35" ry="24"/>
    <path d="M400,560 Q250,560 192,496"/>
    <g transform="translate(508,532)">
      <text>Scan Another</text>
      <text y="44">Barcode</text>
    </g>
  </g>

  <g class="dbg">
    <!--<rect x="-32" y="-133" width="380" height="832"/>-->
    <!--<line x1="-192" x2="-192" y2="480"/>
    <line x1="508" x2="508" y2="480"/>-->
  </g>
</svg>
