<?xml version="1.0"?>
<!DOCTYPE svg PUBLIC "-//W3C//DTD SVG 1.1//EN"
  "http://www.w3.org/Graphics/SVG/1.1/DTD/svg11.dtd">

<!--
   Copyright 2011 (c) Jeff Brown <spadix@users.sourceforge.net>
     All Rights Reserved
-->

<svg version="1.1" id="top"
  width="512px" height="416px"
  viewBox="-354,-133 1024,832" preserveAspectRatio="xMidYMid" overflow="visible"
  xmlns="http://www.w3.org/2000/svg">

  <title>annotated barcode detail</title>
  <defs>
    <style type="text/css"><![CDATA[
      * { stroke-linecap: round; stroke-linejoin: round }
      /*image { image-rendering: optimizeSpeed }*/
      .ann text { fill: #c12; font: bold 36px sans-serif; text-anchor: middle }
      .ann ellipse, .ann path { stroke: #d12; fill: none; stroke-width: 8 }
      path.arrow { marker-end: url(#arrow) }
      #arrow path { stroke: #d12; fill: none; stroke-width: 8 }
      #bg { stroke: none; fill: black }
      .dbg rect, .dbg line, .dbg path { stroke: red; fill: none; stroke-width: 2; stroke-opacity: .5 }
      .dbg circle { stroke: none; fill: red; fill-opacity: .5 }
    ]]></style>
    <marker id="arrow" overflow="visible"
      markerUnits="userSpaceOnUse" orient="auto">
      <path d="M-24,-12 l24,12 -24,12"/>
    </marker>
  </defs>

  <!-- screenshot and phone wrapper -->
  <rect id="bg" x="-16" y="-16" width="352" height="512"/>
  <image id="screen" width="320" height="480"
    xlink:href="screen-detail.png"/>
  <image id="phone" x="-32" y="-133" width="380" height="832"
    xlink:href="iphone4-port.png"/>

  <g class="ann">
    <!-- back btn 98x30+6+27 -->
    <ellipse cx="55" cy="42" rx="70" ry="30"/>
    <path class="arrow" d="M-112,0 Q-108,42 -36,42"/>
    <g transform="translate(-192,-64)">
      <text>Return to List</text>
      <text y="44">of Barcodes</text>
    </g>

    <!-- Edit btn 51x30+264+27 -->
    <ellipse cx="289.5" cy="42" rx="45" ry="30"/>
    <path class="arrow" d="M428,0 Q420,42 352,42"/>
    <g transform="translate(508,-64)">
      <text>Edit Links and</text>
      <text y="44">Description</text>
    </g>

    <path class="arrow" d="M384,120 L282,100"/>
    <g transform="translate(508,128)">
      <text>Description</text>
      <text y="44">(if available)</text>
    </g>

    <path class="arrow" d="M-52,116 L72,128"/>
    <g transform="translate(-192,120)">
      <text>Barcode Type</text>
    </g>

    <!-- data cell 302x61+9+162 -->
    <path class="arrow" d="M-52,192 L4,192"/>
    <g transform="translate(-192,206)">
      <text>Barcode Data</text>
    </g>

    <!-- format header text 146x14+20+244 -->
    <path class="arrow" d="M-90,300 Q-72,272 4,251"/>
    <g transform="translate(-192,308)">
      <text>Detected</text>
      <text y="44">Data Formats</text>
    </g>

    <!-- links section 302x89+9+269 -->
    <path d="M312,257 L352,257 Q384,257 372,302 L396,313.5 L372,325 Q384,370 352,370 L312,370"/>
    <g transform="translate(508,308)">
      <text>Available</text>
      <text y="44">Links</text>
    </g>

    <!-- email btn 18x19+16+449 -->
    <ellipse cx="25" cy="458.5" rx="35" ry="24"/>
    <path class="arrow" d="M-112,490 Q-90,460 -36,458.5"/>
    <g transform="translate(-192,532)">
      <text>E-mail this</text>
      <text y="44">Barcode</text>
    </g>

    <!-- folder btn 18x20+294+448 -->
    <ellipse cx="303" cy="458" rx="35" ry="24"/>
    <path class="arrow" d="M440,490 Q420,450 352,458"/>
    <g transform="translate(508,532)">
      <text>File into</text>
      <text y="44">Folder</text>
    </g>
  </g>

  <g class="dbg">
    <!--<rect x="-32" y="-133" width="380" height="832"/>-->
    <!--<line x1="-192" x2="-192" y2="480"/>
    <line x1="508" x2="508" y2="480"/>-->
  </g>
</svg>
