<?xml version="1.0"?>
<!DOCTYPE svg PUBLIC "-//W3C//DTD SVG 1.1//EN"
  "http://www.w3.org/Graphics/SVG/1.1/DTD/svg11.dtd">

<!--
   Copyright 2011 (c) Jeff Brown <spadix@users.sourceforge.net>
     All Rights Reserved
-->

<svg version="1.1" id="top"
  width="512px" height="416px"
  viewBox="-354,-133 1024,832" preserveAspectRatio="xMidYMid" overflow="visible"
  xmlns="http://www.w3.org/2000/svg">

  <title>annotated link editing</title>
  <defs>
    <style type="text/css"><![CDATA[
      * { stroke-linecap: round; stroke-linejoin: round }
      /*image { image-rendering: optimizeSpeed }*/
      .ann text { fill: #c12; font: bold 36px sans-serif; text-anchor: middle }
      .ann ellipse, .ann path { stroke: #d12; fill: none; stroke-width: 8 }
      path.arrow { marker-end: url(#arrow) }
      #arrow path { stroke: #d12; fill: none; stroke-width: 8 }
      #bg { stroke: none; fill: black }
      .dbg rect, .dbg line, .dbg path { stroke: red; fill: none; stroke-width: 2; stroke-opacity: .5 }
      .dbg circle { stroke: none; fill: red; fill-opacity: .5 }
    ]]></style>
    <marker id="arrow" overflow="visible"
      markerUnits="userSpaceOnUse" orient="auto">
      <path d="M-24,-12 l24,12 -24,12"/>
    </marker>
  </defs>

  <!-- screenshot and phone wrapper -->
  <rect id="bg" x="-16" y="-16" width="352" height="512"/>
  <image id="screen" width="320" height="480"
    xlink:href="screen-links-edit.png"/>
  <image id="phone" x="-32" y="-133" width="380" height="832"
    xlink:href="iphone4-port.png"/>

  <g class="ann">
    <!-- Done btn 51x30+264+27 -->
    <ellipse cx="289.5" cy="42" rx="45" ry="30"/>
    <path class="arrow" d="M428,0 Q420,42 352,42"/>
    <g transform="translate(508,-64)">
      <text>Finish</text>
      <text y="44">Editing Links</text>
    </g>

    <!-- link table range x353++73 -->
    <path class="arrow" d="M-72,95 v221"/>
    <g transform="translate(-214,194)">
      <text>"Default Link"</text>
      <text y="44">Search Order</text>
    </g>

    <!-- move grippy 19x16+279+264 -->
    <ellipse cx="288.5" cy="272" rx="35" ry="24"/>
    <path class="arrow" d="M428,240 Q416,272 352,272"/>
    <g transform="translate(508,224)">
      <text>Reorder Links</text>
    </g>

    <!-- delete btn 25x25+8+391 -->
    <ellipse cx="20.5" cy="403.5" rx="35" ry="24"/>
    <path class="arrow" d="M-112,490 Q-108,424 -36,412"/>
    <g transform="translate(-192,532)">
      <text>Delete Link</text>
    </g>

    <!-- add entry  -->
    <!-- ++447 -->
    <path class="arrow" d="M440,496 L198,448"/>
    <g transform="translate(508,512)">
      <text>Add a</text>
      <text y="44">New Link</text>
    </g>
  </g>

  <g class="dbg">
    <!--<rect x="-32" y="-133" width="380" height="832"/>-->
    <!--<line x1="-192" x2="-192" y2="480"/>
    <line x1="508" x2="508" y2="480"/>-->
  </g>
</svg>
